<?xml version="1.0" encoding="utf-8"?>
<!-- Generator: Adobe Illustrator 26.0.3, SVG Export Plug-In . SVG Version: 6.00 Build 0)  -->
<svg version="1.1" id="a" xmlns="http://www.w3.org/2000/svg" xmlns:xlink="http://www.w3.org/1999/xlink" x="0px" y="0px"
	 viewBox="0 0 1257.2 257.8" style="enable-background:new 0 0 1257.2 257.8;" xml:space="preserve">
<style type="text/css">
	.st0{fill:#FFFFFF;}
</style>
<path class="st0" d="M1182.2,49.9h8.4c7.8,0,9.8,4,9.8,14.5V191c0,10.5-2.4,15.2-10.5,15.2h-7.8V49.9z M1127.3,254.4h80
	c32.7,0,49.9-18.2,49.9-57.7v-138c0-40.2-19.2-55.3-50.3-55.3h-79.6V254.4z"/>
<path class="st0" d="M1038.9,151.5h7.8c7.8,0,9.4,3.7,9.4,12.1v72.9c0,9.1,2,14.8,4.4,17.9h55v-1.7c-1.7-3.7-3.4-8.8-3.4-18.2v-83
	c0-18.6-12.5-29-21.9-32.7c9.8-4.4,21.9-14.8,21.9-38.1V47.6c0-29.7-16.9-44.2-41.5-44.2h-87.4v251h55.7L1038.9,151.5L1038.9,151.5z
	 M1038.9,46.6h8.1c7.8,0,9.1,2.7,9.1,11.8v33.7c0,9.1-3,12.2-10.1,12.2h-7.1L1038.9,46.6L1038.9,46.6z"/>
<path class="st0" d="M915.5,91.8l-2,76.2h-15.2C898.3,168,915.5,91.8,915.5,91.8z M963.3,254.4V3.4h-67.2l-65,251H879l8.2-37h24.7
	v37L963.3,254.4L963.3,254.4z"/>
<path class="st0" d="M775.5,91.8l-2,76.2h-15.2C758.3,168,775.5,91.8,775.5,91.8z M823.4,254.4V3.4h-67.2l-65,251H739l8.2-37h24.7
	v37L823.4,254.4L823.4,254.4z"/>
<path class="st0" d="M598.6,257.8c22.6,0,34.8-15.9,41.2-26.6c2.7,5.4,6.1,18.2,6.8,23.3h36.1V103.2h-68.8v46.2h15.5V196
	c0,9.4-3.7,14.2-11.5,14.2s-11.1-4.7-11.1-14.5V61.1c0-8.8,3-13.2,9.5-13.2c8.1,0,10.1,5.1,10.1,13.2v28.3h54v-29
	C680.3,30,668.8,0,619.9,0h-9.5C564.5,0,549,30,549,63.8v137c0,30.7,15.5,57,46.9,57H598.6L598.6,257.8z"/>
<path class="st0" d="M481.2,91.8l-2,76.2H464C464,168,481.2,91.8,481.2,91.8z M529.1,254.4V3.4h-67.2l-65,251h47.9l8.2-37h24.6v37
	L529.1,254.4L529.1,254.4z"/>
<path class="st0" d="M341.2,91.8l-2,76.2h-15.2C324.1,168,341.2,91.8,341.2,91.8z M389.1,254.4V3.4h-67.2l-65,251h47.9l8.2-37h24.6
	v37L389.1,254.4L389.1,254.4z"/>
<polygon class="st0" points="149.1,3.4 149.1,254.4 250.4,254.4 250.4,201.1 204.8,201.1 204.8,3.4 "/>
<path class="st0" d="M63.8,46.2c7.8,0,9.8,4,9.8,11.8v29.7c0,9.4-3.7,12.5-10.1,12.5h-7.8v-54C55.7,46.2,63.8,46.2,63.8,46.2z
	 M64.8,143.7c8.1,0,10.5,3.7,10.5,12.8v39.8c0,10.8-2.7,13.5-9.4,13.5H55.7v-66.1H64.8z M0,254.4h87.7c30.4,0,45.6-19.2,45.6-58
	v-37.1c0-29.7-16.2-39.1-28-42.8c8.1-2.7,23.3-14.2,23.3-38.1V50.6c0-34.1-15.5-47.2-44.2-47.2H0V254.4z"/>
</svg>
