<?xml version="1.0" encoding="utf-8"?>
<!-- Generator: Adobe Illustrator 26.0.3, SVG Export Plug-In . SVG Version: 6.00 Build 0)  -->
<svg version="1.1" id="a" xmlns="http://www.w3.org/2000/svg" xmlns:xlink="http://www.w3.org/1999/xlink" x="0px" y="0px"
	 viewBox="0 0 1257.6 257.6" style="enable-background:new 0 0 1257.6 257.6;" xml:space="preserve">
<style type="text/css">
	.st0{fill:#1D1D1B;}
</style>
<g>
	<path class="st0" d="M63.7,46.2c7.8,0,9.8,4,9.8,11.8v29.7c0,9.4-3.7,12.5-10.1,12.5h-7.8v-54H63.7L63.7,46.2z M64.7,143.6
		c8.1,0,10.4,3.7,10.4,12.8v39.8c0,10.8-2.7,13.5-9.4,13.5H55.6v-66.1H64.7L64.7,143.6z M0,254.2h87.7c30.3,0,45.5-19.2,45.5-58
		v-37.1c0-29.7-16.2-39.1-28-42.8c8.1-2.7,23.3-14.2,23.3-38.1V50.6c0-34.1-15.5-47.2-44.2-47.2H0V254.2z"/>
	<path class="st0" d="M1181.6,49.9h8.4c7.8,0,9.8,4,9.8,14.5v126.4c0,10.4-2.4,15.2-10.4,15.2h-7.8V49.9L1181.6,49.9z M1126.7,254.2
		h79.9c32.7,0,49.9-18.2,49.9-57.7V58.7c0-40.1-19.2-55.3-50.2-55.3h-79.6L1126.7,254.2L1126.7,254.2z"/>
	<path class="st0" d="M1038.3,151.4h7.8c7.8,0,9.4,3.7,9.4,12.1v72.8c0,9.1,2,14.8,4.4,17.9h55v-1.7c-1.7-3.7-3.4-8.8-3.4-18.2
		v-82.9c0-18.6-12.5-29-21.9-32.7c9.8-4.4,21.9-14.8,21.9-38.1v-33c0-29.7-16.9-44.2-41.5-44.2h-87.3v250.9h55.6L1038.3,151.4
		L1038.3,151.4z M1038.3,46.5h8.1c7.8,0,9.1,2.7,9.1,11.8V92c0,9.1-3,12.1-10.1,12.1h-7.1V46.5L1038.3,46.5z"/>
	<path class="st0" d="M915,91.7l-2,76.2h-15.2L915,91.7L915,91.7z M962.8,254.2V3.4h-67.2l-65,250.9h47.8l8.2-37h24.6v37
		L962.8,254.2L962.8,254.2z"/>
	<path class="st0" d="M775.1,91.7l-2,76.2h-15.2L775.1,91.7L775.1,91.7z M822.9,254.2V3.4h-67.2l-65,250.9h47.8l8.2-37h24.6v37
		L822.9,254.2L822.9,254.2z"/>
	<path class="st0" d="M598.3,257.6c22.6,0,34.7-15.9,41.1-26.6c2.7,5.4,6.1,18.2,6.7,23.3h36.1V103.2h-68.8v46.2H629v46.5
		c0,9.4-3.7,14.2-11.5,14.2s-11.1-4.7-11.1-14.5V61c0-8.8,3-13.2,9.4-13.2c8.1,0,10.1,5.1,10.1,13.2v28.3h54v-29
		C679.9,30,668.4,0,619.5,0h-9.4c-45.9,0-61.4,30-61.4,63.7v136.9c0,30.7,15.5,57,46.9,57L598.3,257.6L598.3,257.6z"/>
	<path class="st0" d="M480.9,91.7l-2,76.2h-15.2L480.9,91.7L480.9,91.7z M528.8,254.2V3.4h-67.2l-65,250.9h47.8l8.2-37h24.6v37
		L528.8,254.2L528.8,254.2z"/>
	<path class="st0" d="M341,91.7l-2,76.2h-15.2L341,91.7L341,91.7z M388.9,254.2V3.4h-67.2l-65,250.9h47.8l8.2-37h24.6v37
		L388.9,254.2L388.9,254.2z"/>
	<polygon class="st0" points="149.1,3.4 149.1,254.2 250.2,254.2 250.2,201 204.7,201 204.7,3.4 	"/>
</g>
</svg>
